<svg id="Layer_1" data-name="Layer 1" xmlns="http://www.w3.org/2000/svg" viewBox="0 0 1000 1000"><defs><style>.cls-1{fill:#ea2025;}.cls-2{fill:#0b6e4f;}.cls-3{fill:#feb936;}.cls-4{fill:#fdfcf5;}</style></defs><title>our-burger</title><path class="cls-1" d="M221.48,252.39q63.93,0,91.12,24.93t27.19,76.77q0,51.86-16.36,108.49t-51.86,88.11q-35.49,31.47-103.71,31.46t-95.4-24.92q-27.19-24.91-27.19-76.77,0-24.66,7-65.2t18.63-70a165.09,165.09,0,0,1,31.21-51.1Q139.92,252.4,221.48,252.39Zm-57.9,112.78L140.42,496.06h39.77q19.63,0,29.2-4.78T222,469.38l23.16-130.9H204.86q-19.14,0-28.69,4.79T163.58,365.17Z"/><path class="cls-1" d="M499.38,260,457.59,496.06h34.23q17.63,0,25.18-4.78t10.57-21.9L564.82,260h95.66L629.26,436.66q-7.54,42.79-17.36,69t-27.44,44.3q-17.62,18.14-43.55,25.18t-65.7,7q-60.91,0-85.33-18.37t-24.42-63.19q0-24.66,7.05-63.93L403.72,260Z"/><path class="cls-1" d="M921.77,574.6H816.54L793.39,481H772.75L756.63,574.6H661L716.36,260h151q86.1,0,86.09,77a190,190,0,0,1-9.56,60.42q-17.62,54.38-55.38,72.49ZM797.41,340.5l-11.07,62.93h22.15q17.12,0,25.93-3.78T846.5,378q3.27-17.85,3.27-21.9,0-10.05-7.8-12.83t-25.43-2.77Z"/><path class="cls-2" d="M36.16,779.71,65.23,614.55h81.39q19,0,27.61,6.61t8.59,20.35q0,20.09-8.85,33t-21.54,16.12l-.26,1.58q23.78,4.5,23.78,31.45,0,23.77-12.95,39.9t-36.46,16.12Zm81.39-65.8H97.73l-4.75,27h19.55a11.22,11.22,0,0,0,10-5.29Q126,730.3,126,722.1T117.55,713.91Zm7.4-63.16H109.1l-4.5,24.58h15.59q12.15,0,12.16-17.18Q132.35,650.76,125,650.75Z"/><path class="cls-2" d="M264.47,614.55,242.54,738.49h18q9.24,0,13.21-2.51t5.55-11.5l19.56-109.93H349L332.65,707.3q-4,22.47-9.12,36.21a66,66,0,0,1-14.4,23.25A49.19,49.19,0,0,1,286.27,780q-13.61,3.71-34.48,3.7-32,0-44.79-9.64t-12.82-33.16q0-12.95,3.7-33.57l16.38-92.75Z"/><path class="cls-2" d="M486.18,779.71H431L418.8,730.56H408l-8.46,49.15H349.3l29.06-165.16h79.28q45.19,0,45.19,40.43a99.8,99.8,0,0,1-5,31.71q-9.26,28.54-29.07,38.06ZM420.91,656.83l-5.81,33h11.62q9,0,13.61-2t6.34-11.36a95.82,95.82,0,0,0,1.72-11.5c0-3.52-1.37-5.76-4.09-6.73s-7.18-1.46-13.35-1.46Z"/><path class="cls-2" d="M597.43,731.09l1.32-7.14H586.07l7.13-40.43h60.52l-15.59,88.26a185.92,185.92,0,0,1-64.75,11.89q-32.5,0-46.9-12.94t-14.4-39.91q0-11.36,3.7-33.56,7.92-46,28-66.32t66.59-20.35a188.1,188.1,0,0,1,25,2.11q15.2,2.12,22.33,4.76l-14.53,40.43a199.06,199.06,0,0,0-36.34-3.7q-16.51,0-23.65,2.64t-8.45,10.57l-13,74.79H578.4q9,0,13.35-2T597.43,731.09Z"/><path class="cls-2" d="M773.69,717.35H723.48L720,737.43h61.57l-7.39,42.28H662.44L691.5,614.55H802l-13.74,42.28H734.05l-3.7,22.2h50.21Z"/><path class="cls-2" d="M939.37,779.71H884.14L872,730.56H861.15l-8.45,49.15H802.49l29.07-165.16h79.27Q956,614.55,956,655a99.8,99.8,0,0,1-5,31.71q-9.25,28.54-29.07,38.06ZM874.1,656.83l-5.81,33h11.63q9,0,13.61-2t6.34-11.36a97.1,97.1,0,0,0,1.71-11.5q0-5.28-4.09-6.73t-13.35-1.46Z"/><path class="cls-3" d="M638.22,24.28c19.22,6.35,38.66,12,57.44,19.76A458.74,458.74,0,0,1,773,84.79a275.32,275.32,0,0,1,31.59,24.14c10.89,9.71,21.32,20,28.93,32.61,2.53,4.21,5.17,8.42,6.36,13.28,2.16,8.91-1.66,15.14-10.67,16.56-12.17,1.92-24.39,3.54-36.62,5.08-30.85,3.89-61.79,7-92.76,9.58-27,2.28-54.08,3.94-81.1,6-22.11,1.71-44.26,2.79-66.4,3.84-20.06,1-40.13,1.57-60.19,2.62-22.14,1.17-44.3,1.75-66.46,2.28-31.83.77-63.66,1.45-95.5,1.81q-40.63.45-81.28,0c-22.36-.19-44.72-.87-67.07-1.42a33.46,33.46,0,0,1-8.43-1.05c-6.29-1.82-10.16-5.63-9.28-13.52.61-5.4,3.19-10,5.94-14.63,11.07-18.48,24.64-35,39.53-50.48a335.65,335.65,0,0,1,60.19-49.2,380.34,380.34,0,0,1,79.5-38.94,442.74,442.74,0,0,1,90.55-21.51A532.73,532.73,0,0,1,530.58,8a468.37,468.37,0,0,1,57,5.76c12.35,2,24.62,4.28,36.72,7.51C628.9,22.53,633.73,22.59,638.22,24.28ZM442.09,33.53a5.16,5.16,0,0,0-4.16-.47c-8.62,1.12-17,3.42-25.48,5.26C380.53,45.24,350.53,57.24,322,73a304.58,304.58,0,0,0-70.67,54c-5.16,5.28-10.06,10.84-14.82,16.49-3.83,4.54-6,9.8-3.9,15.82,3.09,8.88,13.1,12.43,21.49,7.73A31.25,31.25,0,0,0,264,157.8a320.52,320.52,0,0,1,41.59-46.59,329.52,329.52,0,0,1,49-37.75,309.8,309.8,0,0,1,36.85-20.3c11.73-5.31,23.48-10.57,35.83-14.39C432,37.29,437,36.17,442.09,33.53Zm2.84-.82-.05.09-.36-.2Z"/><path class="cls-4" d="M442.09,33.53c-5,2.64-10.06,3.76-14.85,5.24-12.35,3.82-24.1,9.08-35.83,14.39a309.8,309.8,0,0,0-36.85,20.3,329.52,329.52,0,0,0-49,37.75A320.52,320.52,0,0,0,264,157.8a31.25,31.25,0,0,1-9.88,9.27c-8.39,4.7-18.4,1.15-21.49-7.73-2.08-6,.07-11.28,3.9-15.82,4.76-5.65,9.66-11.21,14.82-16.49A304.58,304.58,0,0,1,322,73c28.51-15.77,58.51-27.77,90.43-34.69,8.48-1.84,16.86-4.14,25.48-5.26A5.16,5.16,0,0,1,442.09,33.53Z"/><path class="cls-3" d="M169.31,825.69H835.08a0,0,0,0,1,0,0v0A166.77,166.77,0,0,1,668.31,992.45H336.07A166.77,166.77,0,0,1,169.31,825.69v0a0,0,0,0,1,0,0Z"/><path class="cls-4" d="M576.17,969.65c5.07-2.25,10.14-3.11,15-4.31,12.48-3.1,24.28-7.53,36.08-12a323,323,0,0,0,85.69-50.25,278.14,278.14,0,0,0,41-41.18,28,28,0,0,1,9.77-8.15c8.41-4,18.73-.47,22.15,7.73,2.32,5.55.29,10.28-3.47,14.3-4.68,5-9.5,9.92-14.6,14.58a282.23,282.23,0,0,1-70.36,47,342.33,342.33,0,0,1-91.12,28.81c-8.59,1.41-17.06,3.25-25.82,4A5.94,5.94,0,0,1,576.17,969.65Z"/></svg>